<?xml version="1.0" encoding="UTF-8" standalone="no"?>
<!DOCTYPE svg PUBLIC "-//W3C//DTD SVG 1.1//EN" "http://www.w3.org/Graphics/SVG/1.1/DTD/svg11.dtd">
<svg width="100%" height="100%" viewBox="0 0 1080 1080" version="1.1" xmlns="http://www.w3.org/2000/svg" xmlns:xlink="http://www.w3.org/1999/xlink" xml:space="preserve" xmlns:serif="http://www.serif.com/" style="fill-rule:evenodd;clip-rule:evenodd;stroke-linejoin:round;stroke-miterlimit:2;">
    <g transform="matrix(1.08128,0,0,1.08128,-33.6552,-27.9778)">
        <path d="M1029.94,185.685C1029.94,97.484 958.334,25.875 870.132,25.875L190.936,25.875C102.734,25.875 31.125,97.484 31.125,185.685L31.125,864.881C31.125,953.083 102.734,1024.69 190.936,1024.69L870.132,1024.69C958.334,1024.69 1029.94,953.083 1029.94,864.881L1029.94,185.685Z" style="fill:rgb(29,83,165);"/>
    </g>
    <g transform="matrix(0.678982,0,0,1.07056,-372.541,-411.966)">
        <path d="M923.515,770.932C950.49,770.932 976.003,773.855 1000.06,779.7C1024.11,785.546 1045.24,793.601 1063.45,803.866C1081.65,814.131 1096.04,826.32 1106.61,840.435C1117.17,854.549 1122.45,870.018 1122.45,886.841C1122.45,904.234 1117.17,920.202 1106.61,934.744C1096.04,949.286 1081.65,961.832 1063.45,972.382C1045.24,982.932 1024.11,991.201 1000.06,997.189C976.003,1003.18 950.49,1006.17 923.515,1006.17C896.99,1006.17 871.814,1003.25 847.986,997.403C824.158,991.558 803.253,983.36 785.27,972.81C767.287,962.26 753.125,949.642 742.785,934.958C732.444,920.273 727.274,904.234 727.274,886.841C727.274,870.018 732.444,854.478 742.785,840.221C753.125,825.964 767.287,813.703 785.27,803.438C803.253,793.173 824.158,785.189 847.986,779.486C871.814,773.784 896.99,770.932 923.515,770.932ZM923.515,795.739C910.028,795.739 897.664,797.949 886.425,802.369C875.185,806.788 865.632,812.99 857.764,820.974C849.897,828.958 843.827,838.581 839.556,849.844C835.285,861.107 833.15,873.582 833.15,887.269C833.15,901.525 835.285,914.357 839.556,925.762C843.827,937.168 849.897,946.862 857.764,954.846C865.632,962.83 875.073,969.032 886.088,973.451C897.102,977.871 909.578,980.081 923.515,980.081C937.452,980.081 950.153,977.871 961.617,973.451C973.081,969.032 982.859,962.759 990.952,954.632C999.044,946.506 1005.34,936.74 1009.83,925.334C1014.33,913.929 1016.58,901.24 1016.58,887.269C1016.58,873.582 1014.33,861.178 1009.83,850.058C1005.34,838.938 999.044,829.314 990.952,821.188C982.859,813.061 973.081,806.788 961.617,802.369C950.153,797.949 937.452,795.739 923.515,795.739Z" style="fill:white;fill-rule:nonzero;"/>
        <path d="M1379.39,879.997C1341.62,890.833 1313.19,900.884 1294.08,910.151C1274.97,919.418 1265.42,929.041 1265.42,939.021C1265.42,947.29 1269.02,953.848 1276.21,958.696C1283.4,963.543 1292.39,965.967 1303.18,965.967C1313.97,965.967 1324.09,964.755 1333.53,962.331C1342.97,959.907 1351.06,956.7 1357.81,952.708C1364.55,948.716 1369.83,943.94 1373.66,938.379C1377.48,932.819 1379.39,926.903 1379.39,920.63L1379.39,879.997ZM1379.39,857.329L1379.39,839.365C1379.39,822.827 1374.78,810.78 1365.56,803.224C1356.35,795.668 1342.07,791.89 1322.74,791.89C1309.7,791.89 1299.81,794.1 1293.07,798.519C1286.33,802.939 1280.03,810.281 1274.19,820.546C1270.14,827.675 1264.41,833.235 1256.99,837.227C1249.57,841.219 1239.34,843.215 1226.31,843.215C1213.72,843.215 1204.05,840.791 1197.31,835.944C1190.57,831.096 1187.19,824.253 1187.19,815.414C1187.19,801.727 1198.99,790.892 1222.6,782.908C1246.2,774.924 1281.83,770.932 1329.48,770.932C1379.84,770.932 1415.8,776.706 1437.38,788.254C1458.96,799.802 1469.75,819.121 1469.75,846.209L1469.75,939.876C1469.75,964.113 1477.4,976.231 1492.68,976.231C1501.22,976.231 1509.09,974.378 1516.28,970.671L1526.4,983.075C1520.11,990.203 1510.33,995.835 1497.07,999.969C1483.8,1004.1 1468.85,1006.17 1452.22,1006.17C1431.54,1006.17 1415.8,1002.18 1405.01,994.195C1394.22,986.211 1388.83,974.948 1388.83,960.406L1385.46,960.406C1372.42,975.234 1355.56,986.496 1334.88,994.195C1314.2,1001.89 1290.6,1005.74 1264.07,1005.74C1235.75,1005.74 1213.04,1000.68 1195.96,990.56C1178.88,980.437 1170.33,967.25 1170.33,950.997C1170.33,938.451 1179.1,926.689 1196.63,915.711C1214.17,904.733 1243.39,893.969 1284.3,883.419L1379.39,857.329Z" style="fill:white;fill-rule:nonzero;"/>
        <path d="M1688.25,955.702C1700.39,956.272 1711.06,956.842 1720.28,957.412C1729.5,957.983 1738.26,958.624 1746.58,959.337C1754.9,960.05 1763.22,960.763 1771.53,961.476C1779.85,962.188 1788.73,962.973 1798.17,963.828C1833.24,966.965 1860.77,975.305 1880.78,988.849C1900.79,1002.39 1910.79,1019.14 1910.79,1039.1C1910.79,1063.34 1895.05,1081.73 1863.58,1094.28C1832.11,1106.83 1785.81,1113.1 1724.66,1113.1C1668.47,1113.1 1625.19,1107.89 1594.85,1097.49C1564.5,1087.08 1549.33,1072.32 1549.33,1053.22C1549.33,1038.39 1555.4,1027.2 1567.54,1019.64C1579.67,1012.09 1594.96,1008.31 1613.39,1008.31C1625.08,1008.31 1636.43,1009.81 1647.45,1012.8C1658.46,1015.79 1667.79,1020.14 1675.43,1025.85C1663.75,1027.27 1654.19,1030.62 1646.77,1035.9C1639.36,1041.17 1635.65,1047.37 1635.65,1054.5C1635.65,1065.91 1643.63,1074.67 1659.59,1080.81C1675.55,1086.94 1699.04,1090 1730.06,1090C1797.5,1090 1831.21,1076.46 1831.21,1049.37C1831.21,1039.67 1826.16,1031.33 1816.04,1024.35C1805.92,1017.36 1791.43,1013.16 1772.54,1011.73L1654.53,1001.47C1604.63,997.189 1579.67,983.075 1579.67,959.123C1579.67,947.433 1585.63,937.88 1597.55,930.467C1609.46,923.053 1626.43,917.921 1648.46,915.069L1648.46,913.359C1638.12,910.792 1628.79,907.228 1620.47,902.666C1612.16,898.104 1604.85,892.829 1598.56,886.841C1592.26,880.853 1587.43,874.366 1584.06,867.38C1580.69,860.394 1579,853.195 1579,845.781C1579,835.231 1582.49,825.322 1589.45,816.055C1596.42,806.788 1606.09,798.876 1618.45,792.318C1630.81,785.759 1645.43,780.556 1662.29,776.706C1679.14,772.857 1697.46,770.932 1717.25,770.932C1736.58,770.932 1755.46,772.786 1773.89,776.492C1792.33,780.199 1808.06,785.332 1821.1,791.89C1831.44,787.898 1840.43,784.548 1848.07,781.839C1855.72,779.13 1862.8,776.991 1869.32,775.423C1875.84,773.855 1881.79,772.714 1887.19,772.002C1892.58,771.289 1897.98,770.932 1903.37,770.932C1920.45,770.932 1934.28,773.356 1944.85,778.203C1955.41,783.051 1960.69,789.466 1960.69,797.45C1960.69,803.438 1957.77,808.357 1951.93,812.206C1946.08,816.055 1938.44,817.98 1929,817.98C1922.25,817.98 1916.86,817.053 1912.81,815.2C1908.77,813.347 1904.83,811.208 1901.01,808.784C1897.19,806.361 1893.26,804.222 1889.21,802.369C1885.16,800.515 1879.77,799.589 1873.03,799.589C1863.58,799.589 1854.59,803.438 1846.05,811.137C1850.55,815.984 1853.69,821.188 1855.49,826.748C1857.29,832.308 1858.19,838.795 1858.19,846.209C1858.19,857.044 1855.49,867.024 1850.1,876.148C1844.7,885.273 1836.27,893.328 1824.81,900.314C1813.34,907.299 1798.62,913.216 1780.64,918.063C1762.65,922.911 1740.85,926.19 1715.22,927.901C1693.64,929.326 1678.69,931.18 1670.38,933.461C1662.06,935.742 1657.9,939.164 1657.9,943.726C1657.9,950.569 1668.02,954.561 1688.25,955.702ZM1720.62,903.521C1735,903.521 1746.24,898.674 1754.34,888.979C1762.43,879.285 1766.48,865.741 1766.48,848.347C1766.48,830.669 1762.43,817.053 1754.34,807.501C1746.24,797.949 1734.78,793.173 1719.94,793.173C1704.66,793.173 1692.52,798.02 1683.53,807.715C1674.54,817.41 1670.04,830.669 1670.04,847.492C1670.04,864.6 1674.65,878.215 1683.87,888.338C1693.08,898.46 1705.33,903.521 1720.62,903.521Z" style="fill:white;fill-rule:nonzero;"/>
    </g>
</svg>
